<?xml version="1.0" encoding="UTF-8"?>
<svg id="Layer_1" data-name="Layer 1" xmlns="http://www.w3.org/2000/svg" version="1.1" viewBox="0 0 1064.2 1064.2">
  <defs>
    <style>
      .cls-1 {
        fill: #405e7f;
      }

      .cls-1, .cls-2, .cls-3 {
        stroke-width: 0px;
      }

      .cls-2 {
        fill: #d69d2b;
      }

      .cls-3 {
        fill: #c78b54;
      }
    </style>
  </defs>
  <g>
    <polygon class="cls-3" points="209.6 768.4 0 1064.2 175.7 747.1 209.6 768.4 209.6 768.4"/>
    <polygon class="cls-3" points="762.2 160.8 1064.2 0 783 194.9 762.2 160.8 762.2 160.8"/>
    <polygon class="cls-3" points="0 1064.2 243.1 821.1 188.7 766.7 0 1064.2"/>
    <polygon class="cls-3" points="1064.2 0 817.5 239.5 763.9 184.3 1064.2 0"/>
    <path class="cls-3" d="M0,1064.2c165.8-188.4,341-368.4,518-546.3C695.8,340.9,875.8,165.8,1064.2,0c-165.8,188.5-340.9,368.5-518,546.3C368.4,723.3,188.4,898.4,0,1064.2h0Z"/>
    <path class="cls-3" d="M219.2,845.1l46-46c-31.6-31.6-57.5-68.8-76.4-110.2-21.2-46.4-32.6-95.5-34.1-146-1.4-48.8,6.6-96.8,23.8-142.8,17.1-46,42.6-87.5,75.5-123.5,34.1-37.2,74.9-66.8,121.3-88,49.7-22.7,102.4-34.2,156.6-34.2h0c71.4,0,141.2,20.2,201.8,58.4,23.8,15,45.7,32.5,65.4,52.2l46-46c-83.1-83.1-196.4-129.6-313.2-129.6-61.5,0-124,12.9-183.6,40.1C126,231.1,28.1,493.6,129.6,715.9c22.6,49.5,53.2,92.8,89.5,129.1Z"/>
    <circle class="cls-3" cx="230.3" cy="230.4" r="46.8"/>
  </g>
  <g>
    <g>
      <path class="cls-2" d="M488.9,933.6s0,0,.1,0c-40.4-30.9-87.5-47-138.5-46.2,0,0,0,0,0,0-48.9-.1-95.8-12.2-140.9-30.3,27.2,59.1,86.1,110.6,154.7,108.2.3,0,.4,0,.7,0,0,0,0,0,0,0,43.6-3.6,84.1-13.5,123.9-31.6Z"/>
      <path class="cls-2" d="M747.6,867.8s0,0,0-.1c-47.7,2.1-91.4,20-122.9,55.9,0,0,0,.1,0,.1-29.4,30.6-62,55.4-99,76h0c51.1,25.5,114.5,16,153.9-26.7.2-.2.3-.3.4-.5,0,0,0,0,0,0,27.3-32.2,49.7-66.5,67.6-104.7Z"/>
      <path class="cls-2" d="M914.3,658.4s0,0,0-.1c-37,30.1-63.2,69.7-66.7,117.6,0,0,0,.1,0,.1-5.1,41.4-15.7,80.6-31.4,119.3h0c54.7-12.3,100-58,106.3-115,0-.3,0-.4,0-.6,0,0,0,0,0,0,2.7-41.1.5-80.9-8.2-121.2Z"/>
      <path class="cls-2" d="M999.1,480.7c-.2-.2-.2-.3-.4-.5,0,0,0,0,0,0-26.1-35.8-55.8-66.5-90.7-93.7,0,0,0,0-.1,0-5.1,48.8,1.6,98.2,29.9,138.7,0,0,0,.1,0,.1,22.2,35.2,38.2,72.1,49.4,112.2h0c37.4-43.7,44.4-107.8,11.9-156.7Z"/>
      <path class="cls-2" d="M838.8,185.4c-.3,0-.4-.1-.6-.2,0,0,0,0,0,0-43-10.6-68.2-15.1-112.4-13.5,0,0,0,0,0,0,4.5,34.3,49.3,75.2,97,88,0,0,0,0,0,0,42.2,16.5,74.6,33.7,108.7,53.2h0c.5-57.5-36.4-111.1-92.7-127.5Z"/>
    </g>
    <g>
      <path class="cls-1" d="M624.7,923.7s0,0,0-.1c-45.9-14-93.2-12-135.7,9.9,0,0-.1,0-.1,0-39.9,18-80.4,28-123.9,31.6,0,0,0,0,0,0,40.3,43.1,105.2,62.5,160.1,34.9.2-.1.3-.2.6-.3h0c37.1-20.7,69.6-45.5,99-76Z"/>
      <path class="cls-1" d="M350.7,887.3s0,0,.1,0c-21.9-42.7-56.2-75.3-101.5-90.6,0,0-.1,0-.1,0-40.7-16.1-78.9-35.8-111.8-64.7,0,0,0,0,0,0-3,58.9,31.2,116.7,89.2,136.9.2,0,.4.1.6.2h0c40.6,12.3,81.1,18.4,123.5,18.3Z"/>
      <path class="cls-1" d="M847.5,776s0,0,0-.1c-44.9,17.1-81.5,47.3-99.9,91.8,0,0,0,.1,0,.1-17.9,38.2-40.3,72.5-67.6,104.7,0,0,0,0,0,0,56.2,6.1,112.3-24.6,135.9-76.7.1-.2.2-.4.2-.6h0c15.7-38.7,26.3-77.8,31.4-119.3Z"/>
      <path class="cls-1" d="M937.8,525.2s0,0,0-.1c-24,40.9-35.8,87-23.5,133.2,0,0,0,.1,0,.1,8.6,40.3,10.9,80.1,8.2,121.2,0,0,0,0,0,0,48.2-28.5,78-85.4,64.9-141.7,0-.2,0-.4-.2-.6h0c-11.2-40.1-27.2-76.9-49.4-112.2Z"/>
      <path class="cls-1" d="M998.7,485.2s0,0,0,0c22.8-57.1-16.5-138.2-67.1-172.3-41.1-28.3-75.1-44.3-117.1-55.7,19.3,51.9,47.8,102,93.4,134.2,0,0,.1,0,.1,0,34.9,27.2,64.6,58,90.7,93.7Z"/>
      <path class="cls-1" d="M836.9,184.9s0,0,0,0c-78.3-109-159.7-70.8-159.7-70.8,0,0,21.3,42.1,48.6,57.7,0,0,0,0,0,0,44.2-.9,66.4,2.3,111.1,13.2Z"/>
    </g>
  </g>
</svg>