<?xml version="1.0" encoding="UTF-8"?>
<svg id="Layer_1" data-name="Layer 1" xmlns="http://www.w3.org/2000/svg" version="1.1" viewBox="0 0 1460 1460">
  <defs>
    <style>
      .cls-1 {
        fill: #405e7f;
      }

      .cls-1, .cls-2, .cls-3, .cls-4, .cls-5 {
        stroke-width: 0px;
      }

      .cls-2 {
        fill: #91663d;
      }

      .cls-3 {
        fill: #d69d2b;
      }

      .cls-4 {
        fill: #fff;
      }

      .cls-5 {
        fill: #c78b54;
      }
    </style>
  </defs>
  <g>
    <g>
      <polygon class="cls-5" points="407.5 827.4 197.9 1123.2 373.6 806.1 407.5 827.4 407.5 827.4"/>
      <polygon class="cls-5" points="960.1 219.8 1262.1 59 980.9 253.9 960.1 219.8 960.1 219.8"/>
      <polygon class="cls-5" points="197.9 1123.2 441 880.1 386.6 825.7 197.9 1123.2"/>
      <polygon class="cls-5" points="1262.1 59 1015.4 298.5 961.8 243.3 1262.1 59"/>
      <path class="cls-5" d="M197.9,1123.2c165.8-188.4,341-368.4,518-546.3,177.8-177.1,357.8-352.2,546.3-518-165.8,188.5-340.9,368.5-518,546.3-177.8,177-357.8,352.1-546.3,518h0Z"/>
      <path class="cls-5" d="M417,904.1l46-46c-31.6-31.6-57.5-68.8-76.4-110.2-21.2-46.4-32.6-95.5-34.1-146-1.4-48.8,6.6-96.8,23.8-142.8,17.1-46,42.6-87.5,75.5-123.5,34.1-37.2,74.9-66.8,121.3-88,49.7-22.7,102.4-34.2,156.6-34.2h0c71.4,0,141.2,20.2,201.8,58.4,23.8,15,45.7,32.5,65.4,52.2l46-46c-83.1-83.1-196.4-129.6-313.2-129.6-61.5,0-124,12.9-183.6,40.1-222.3,101.5-320.2,364-218.7,586.3,22.6,49.5,53.2,92.8,89.5,129.1Z"/>
      <circle class="cls-5" cx="428.1" cy="289.4" r="46.8"/>
    </g>
    <g>
      <g>
        <path class="cls-3" d="M686.8,992.6s0,0,.1,0c-40.4-30.9-87.5-47-138.5-46.2,0,0,0,0,0,0-48.9-.1-95.8-12.2-140.9-30.3,27.2,59.1,86.1,110.6,154.7,108.2.3,0,.4,0,.7,0,0,0,0,0,0,0,43.6-3.6,84.1-13.5,123.9-31.6Z"/>
        <path class="cls-3" d="M945.4,926.8s0,0,0-.1c-47.7,2.1-91.4,20-122.9,55.9,0,0,0,.1,0,.1-29.4,30.6-62,55.4-99,76h0c51.1,25.5,114.5,16,153.9-26.7.2-.2.3-.3.4-.5,0,0,0,0,0,0,27.3-32.2,49.7-66.5,67.6-104.7Z"/>
        <path class="cls-3" d="M1112.1,717.4s0,0,0-.1c-37,30.1-63.2,69.7-66.7,117.6,0,0,0,.1,0,.1-5.1,41.4-15.7,80.6-31.4,119.3h0c54.7-12.3,100-58,106.3-115,0-.3,0-.4,0-.6,0,0,0,0,0,0,2.7-41.1.5-80.9-8.2-121.2Z"/>
        <path class="cls-3" d="M1196.9,539.7c-.2-.2-.2-.3-.4-.5,0,0,0,0,0,0-26.1-35.8-55.8-66.5-90.7-93.7,0,0,0,0-.1,0-5.1,48.8,1.6,98.2,29.9,138.7,0,0,0,.1,0,.1,22.2,35.2,38.2,72.1,49.4,112.2h0c37.4-43.7,44.4-107.8,11.9-156.7Z"/>
        <path class="cls-3" d="M1036.7,244.4c-.3,0-.4-.1-.6-.2,0,0,0,0,0,0-43-10.6-68.2-15.1-112.4-13.5,0,0,0,0,0,0,4.5,34.3,49.3,75.2,97,88,0,0,0,0,0,0,42.2,16.5,74.6,33.7,108.7,53.2h0c.5-57.5-36.4-111.1-92.7-127.5Z"/>
      </g>
      <g>
        <path class="cls-1" d="M822.5,982.7s0,0,0-.1c-45.9-14-93.2-12-135.7,9.9,0,0-.1,0-.1,0-39.9,18-80.4,28-123.9,31.6,0,0,0,0,0,0,40.3,43.1,105.2,62.5,160.1,34.9.2-.1.3-.2.6-.3h0c37.1-20.7,69.6-45.5,99-76Z"/>
        <path class="cls-1" d="M548.6,946.3s0,0,.1,0c-21.9-42.7-56.2-75.3-101.5-90.6,0,0-.1,0-.1,0-40.7-16.1-78.9-35.8-111.8-64.7,0,0,0,0,0,0-3,58.9,31.2,116.7,89.2,136.9.2,0,.4.1.6.2h0c40.6,12.3,81.1,18.4,123.5,18.3Z"/>
        <path class="cls-1" d="M1045.3,835s0,0,0-.1c-44.9,17.1-81.5,47.3-99.9,91.8,0,0,0,.1,0,.1-17.9,38.2-40.3,72.5-67.6,104.7,0,0,0,0,0,0,56.2,6.1,112.3-24.6,135.9-76.7.1-.2.2-.4.2-.6h0c15.7-38.7,26.3-77.8,31.4-119.3Z"/>
        <path class="cls-1" d="M1135.7,584.2s0,0,0-.1c-24,40.9-35.8,87-23.5,133.2,0,0,0,.1,0,.1,8.6,40.3,10.9,80.1,8.2,121.2,0,0,0,0,0,0,48.2-28.5,78-85.4,64.9-141.7,0-.2,0-.4-.2-.6h0c-11.2-40.1-27.2-76.9-49.4-112.2Z"/>
        <path class="cls-1" d="M1196.6,544.2s0,0,0,0c22.8-57.1-16.5-138.2-67.1-172.3-41.1-28.3-75.1-44.3-117.1-55.7,19.3,51.9,47.8,102,93.4,134.2,0,0,.1,0,.1,0,34.9,27.2,64.6,58,90.7,93.7Z"/>
        <path class="cls-1" d="M1034.8,243.9s0,0,0,0c-78.3-109-159.7-70.8-159.7-70.8,0,0,21.3,42.1,48.6,57.7,0,0,0,0,0,0,44.2-.9,66.4,2.3,111.1,13.2Z"/>
      </g>
    </g>
  </g>
  <g>
    <g>
      <path class="cls-2" d="M48.6,1411.2v-192.5h75.3c11.2,0,21.3,2.6,30.4,7.8,9.1,5.2,16.3,12.3,21.6,21.3,5.3,9,8,19.2,8,30.5s-2.6,20.3-7.7,28.9c-5.1,8.6-12.1,15.4-20.9,20.5-8.8,5-18.7,7.6-29.7,7.6h-55.6v75.9h-21.4ZM70.1,1314.4h57.5c6.8,0,12.7-1.6,17.9-4.7,5.1-3.1,9.2-7.4,12.1-12.8,2.9-5.4,4.4-11.6,4.4-18.6s-1.7-14.2-5.2-20.1c-3.5-5.9-8.3-10.5-14.4-13.8-6.1-3.3-13.2-5-21-5h-51.1v74.8ZM166.1,1411.2l-48.4-84.7,20.6-7.2,53.4,91.9h-25.6Z"/>
      <path class="cls-2" d="M285.1,1411.2v-192.5h116.6v20.9h-95.1v150.7h94.6v20.9h-116ZM295,1322.7v-20.9h91.3v20.9h-91.3Z"/>
      <path class="cls-2" d="M584.6,1414c-13.8,0-26.4-2.4-38-7.3s-21.5-11.7-30-20.6c-8.4-8.9-15-19.4-19.7-31.5-4.7-12.1-7-25.3-7-39.6s2.3-27.1,7-38.9c4.7-11.8,11.3-22.2,19.9-31.1,8.6-8.9,18.6-15.7,30-20.5,11.4-4.8,23.8-7.1,37.4-7.1s17.9,1.4,26.7,4.3c8.8,2.8,16.9,6.7,24.3,11.7,7.4,4.9,13.5,10.6,18.3,17l-14.8,15.4c-4.6-5.5-9.9-10.3-15.8-14.3-6-4-12.2-7.2-18.8-9.4-6.6-2.2-13.2-3.3-19.8-3.3-10.3,0-19.8,1.9-28.7,5.6-8.9,3.8-16.5,9-23,15.8-6.4,6.8-11.4,14.9-15,24.2-3.6,9.3-5.4,19.5-5.4,30.5s1.8,21.8,5.4,31.4c3.6,9.5,8.7,17.7,15.4,24.6,6.7,6.9,14.6,12.2,23.6,16,9.1,3.8,19.2,5.6,30.4,5.6s13.2-1,19.8-2.9c6.6-1.9,12.7-4.6,18.2-8.1,5.5-3.5,10.2-7.4,14-11.8l11,17.9c-4.2,5.1-9.9,9.7-16.9,13.6-7.1,3.9-14.8,7.1-23.2,9.4-8.4,2.3-16.9,3.4-25.3,3.4Z"/>
      <path class="cls-2" d="M745.7,1411.2v-192.5h21.5v192.5h-21.5ZM762,1352.1l-.8-25.6,108.9-107.8h28.9l-137,133.4ZM874.7,1411.2l-77.3-102.9,15.7-13.8,88.5,116.6h-27Z"/>
      <path class="cls-2" d="M1060.1,1414c-13.6,0-26.1-2.4-37.5-7.3-11.5-4.9-21.5-11.7-30-20.5-8.5-8.8-15.1-19.2-19.8-31.2-4.7-12-7-25.2-7-39.5s2.3-27.5,7-39.5c4.7-12,11.3-22.5,19.8-31.3,8.5-8.9,18.5-15.8,30-20.6,11.5-4.9,24-7.3,37.5-7.3s26.4,2.4,37.8,7.3c11.5,4.9,21.5,11.7,30,20.6,8.5,8.9,15.1,19.3,19.8,31.3,4.7,12,7,25.2,7,39.5s-2.3,27.2-7,39.2c-4.7,12-11.3,22.5-19.8,31.3-8.5,8.9-18.5,15.8-30,20.6-11.5,4.9-24.1,7.3-37.8,7.3ZM1060.1,1392.8c10.5,0,20.1-1.9,29-5.6,8.9-3.8,16.5-9.1,23-16.1,6.4-7,11.4-15.2,15-24.6,3.6-9.4,5.4-19.8,5.4-30.9s-1.8-21.8-5.4-31.2c-3.6-9.4-8.6-17.6-15-24.6-6.4-7-14.1-12.4-23-16.2-8.9-3.9-18.6-5.8-29-5.8s-20.1,1.9-29,5.8c-8.9,3.9-16.5,9.3-23,16.2-6.4,7-11.4,15.2-14.9,24.6-3.5,9.4-5.2,19.8-5.2,31.2s1.7,21.5,5.2,30.9c3.5,9.4,8.4,17.6,14.9,24.6,6.4,7,14.1,12.3,23,16.1,8.9,3.8,18.6,5.6,29,5.6Z"/>
      <path class="cls-2" d="M1251.5,1411.2v-192.5h19.5l126,166.6-3.8,5c-.5-2.9-1-7.3-1.2-13.2-.3-5.9-.6-12.5-.8-19.9-.3-7.4-.5-15.2-.7-23.2-.2-8.1-.3-16-.4-23.7,0-7.7-.1-14.7-.1-20.9v-70.7h21.4v192.5h-20.1l-125.4-164.5,3.3-5.8c.5,7.3,1.1,14.6,1.5,21.7.5,7.1.8,14,1.1,20.6.3,6.6.5,12.6.7,18.1.2,5.5.3,10.2.4,14,0,3.8.1,6.6.1,8.2v87.5h-21.5Z"/>
    </g>
    <rect class="cls-4" x="714.1" y="1216.7" width="200" height="229.3"/>
    <path class="cls-2" d="M725.9,1411.2l88.5-116.6,15.7,13.8-77.3,102.9h-27ZM728.7,1218.7h28.9l108.9,107.8-.8,25.6-137-133.4ZM860.4,1411.2v-192.5h21.5v192.5h-21.5Z"/>
  </g>
</svg>