<?xml version="1.0" encoding="UTF-8"?>
<svg id="opened_flower" data-name="opened flower" xmlns="http://www.w3.org/2000/svg" viewBox="0 0 173.5 147.42">
  <defs>
    <style>
      .cls-1 {
        fill: #952990;
      }

      .cls-1, .cls-2, .cls-3, .cls-4, .cls-5, .cls-6 {
        stroke-width: 0px;
      }

      .cls-2 {
        fill: #b933b9;
      }

      .cls-3 {
        fill: #124715;
      }

      .cls-4 {
        fill: #fb66fa;
      }

      .cls-5 {
        fill: #cd49cc;
      }

      .cls-6 {
        fill: #23651b;
      }
    </style>
  </defs>
  <path class="cls-3" d="M1.63,108.14s13.36,26.2,77.45,37.78c0,0,8.94-5.89,3.42-12.44s-24.6-13.39-80.87-25.34Z"/>
  <path class="cls-6" d="M8.53,131.87s11.08,18.33,71.31,13.89l-9.83-6.33s-46.81,1.11-61.47-7.56Z"/>
  <path class="cls-3" d="M87.9,146.45s61.94-3.81,78.08-26.31c0,0-42.67,15.83-66.92,15.61,0,0-23.1,7.61-11.16,10.69Z"/>
  <path class="cls-1" d="M138.27,68.48c-.32-.83-25.26,17.71-36.3,60.6,0,0,17.8-.78,32.68-14.23,0,0,15.89-14.43,3.61-46.36Z"/>
  <path class="cls-1" d="M11.33,86.1s10.44,38.29,30.22,45.37h39.33s-32-7.81-69.56-45.37Z"/>
  <path class="cls-1" d="M60.39,60.82s-19.11,37.83,8.5,74.17l33.08-8.44s-3.75-54.5-41.58-65.72Z"/>
  <path class="cls-2" d="M92.95,66.07s-20.83,19.86-13.39,57.22c0,0,19.71-9.5,34.97-20.06,0,0-17.72-8.31-21.58-37.17Z"/>
  <path class="cls-2" d="M25.5,68.48s-8.17,50.51,37.17,61.61l39.77-19.92s-35.17,20.92-76.93-41.69Z"/>
  <path class="cls-2" d="M0,118.42s27.83,25.83,85.67,25.83,84.5-36.83,87.83-53.17c0,0-43.5,50-173.5,27.33Z"/>
  <path class="cls-5" d="M98.43,143.63s27.56-13.05,14.67-53.49c0,0-27.98-3.26-47.94,51.95-.18.49.04,1.04.51,1.26,3.35,1.57,16.63,6.83,32.76.29Z"/>
  <path class="cls-5" d="M98.43,143.63s38.74-16.13,51.4-57.53c0,0-.67,29.32-12.59,46.09,0,0-16.3,9.76-38.82,11.45Z"/>
  <path class="cls-5" d="M46.74,85.11s-13.41,33.11,10.35,56.89c0,0,22.98,5.08,31.87-1.97,0,0-37.44-39.39-42.22-54.92Z"/>
  <g>
    <path class="cls-2" d="M74.17,47.59s12.55-6.56,25.09-25.09c0,0-12.55,6.78-25.09,25.09Z"/>
    <path class="cls-2" d="M99.26,47.59s-6.56-12.55-25.09-25.09c0,0,6.78,12.55,25.09,25.09Z"/>
    <path class="cls-4" d="M86.77,5.46s-8.23,23.17,0,59.17c0,0,8.01-21.17,0-59.17Z"/>
    <path class="cls-4" d="M116.31,35.09s-23.17-8.39-59.17,0c0,0,21.17,8.16,59.17,0Z"/>
  </g>
  <path class="cls-4" d="M122.93.06c-.42,1.67-2.15,9.6,0,17.78.02.08.13.08.16,0,.39-1.43,2.02-8.31,0-17.78-.02-.08-.14-.09-.16-.01Z"/>
  <path class="cls-4" d="M114.09,9c1.67.42,9.6,2.15,17.78,0,.08-.02.08-.13,0-.16-1.43-.39-8.31-2.02-17.78,0-.08.02-.09.14-.01.16Z"/>
  <path class="cls-2" d="M37.57,35.89s-1.65,7.02,0,13.19c0,0,1.8-5.91,0-13.19Z"/>
  <path class="cls-2" d="M31.89,39.2s5.25,4.94,11.42,6.6c0,0-4.22-4.52-11.42-6.6Z"/>
  <path class="cls-2" d="M43.32,39.19s-6.9,2.08-11.42,6.6c0,0,6.02-1.4,11.42-6.6Z"/>
  <path class="cls-3" d="M97.71,133.04s-9.39,8.09-17.16,8.77c0,0,3.88,3.3,8.41,4.56,0,0,8.26-4.58,8.75-13.33Z"/>
  <path class="cls-6" d="M62.9,121.24s-13.44,24.04,8.84,25.96c0,0,8.5.88,17.22-.82,0,0-16.23-5.55-26.06-25.13Z"/>
</svg>